<?xml version="1.0" encoding="UTF-8" standalone="no"?>
<svg xmlns:dc="http://purl.org/dc/elements/1.1/" xmlns:cc="http://creativecommons.org/ns#" xmlns:rdf="http://www.w3.org/1999/02/22-rdf-syntax-ns#" xmlns:svg="http://www.w3.org/2000/svg" xmlns="http://www.w3.org/2000/svg" viewBox="0 0 666.66669 666.66669" height="666.66669" width="666.66669" xml:space="preserve" id="svg2" version="1.1">
    <metadata id="metadata8">
        <rdf:RDF>
            <cc:Work rdf:about="">
                <dc:format>image/svg+xml</dc:format><dc:type rdf:resource="http://purl.org/dc/dcmitype/StillImage"/></cc:Work>
        </rdf:RDF>
    </metadata>
    <defs id="defs6">
        <clipPath id="clipPath32" clipPathUnits="userSpaceOnUse"><path id="path30" d="M 0,500 H 500 V 0 H 0 Z"/></clipPath>
        <clipPath id="clipPath248" clipPathUnits="userSpaceOnUse"><path id="path246" d="M 0,500 H 500 V 0 H 0 Z"/></clipPath>
        <clipPath id="clipPath260" clipPathUnits="userSpaceOnUse"><path id="path258" d="M 96.6899,440.974 H 436.235 V 122.862 H 96.6899 Z"/></clipPath>
        <clipPath id="clipPath276" clipPathUnits="userSpaceOnUse"><path id="path274" d="M 0,500 H 500 V 0 H 0 Z"/></clipPath>
        <clipPath id="clipPath288" clipPathUnits="userSpaceOnUse"><path id="path286" d="M 0,500 H 500 V 0 H 0 Z"/></clipPath>
        <clipPath id="clipPath300" clipPathUnits="userSpaceOnUse"><path id="path298" d="M 164.605,359.156 H 384.406 V 156.426 H 164.605 Z"/></clipPath>
        <clipPath id="clipPath316" clipPathUnits="userSpaceOnUse"><path id="path314" d="M 167.021,318.393 H 381.99 V 158.841 H 167.021 Z"/></clipPath>
        <clipPath id="clipPath358" clipPathUnits="userSpaceOnUse"><path id="path356" d="M 203.566,308.03 H 365.957 V 287.473 H 203.566 Z"/></clipPath>
        <clipPath id="clipPath374" clipPathUnits="userSpaceOnUse"><path id="path372" d="M 177.742,305.474 H 194.51 V 288.707 H 177.742 Z"/></clipPath>
        <clipPath id="clipPath418" clipPathUnits="userSpaceOnUse"><path id="path416" d="M 204.054,279.754 H 366.445 V 259.197 H 204.054 Z"/></clipPath>
        <clipPath id="clipPath434" clipPathUnits="userSpaceOnUse"><path id="path432" d="m 178.23,277.198 h 16.768 V 260.43 H 178.23 Z"/></clipPath>
        <clipPath id="clipPath478" clipPathUnits="userSpaceOnUse"><path id="path476" d="m 204.542,251.477 h 162.39 V 230.92 h -162.39 z"/></clipPath>
        <clipPath id="clipPath494" clipPathUnits="userSpaceOnUse"><path id="path492" d="m 178.718,248.921 h 16.768 v -16.768 h -16.768 z"/></clipPath>
        <clipPath id="clipPath538" clipPathUnits="userSpaceOnUse"><path id="path536" d="M 205.029,223.201 H 367.42 V 202.644 H 205.029 Z"/></clipPath>
        <clipPath id="clipPath554" clipPathUnits="userSpaceOnUse"><path id="path552" d="m 179.206,220.645 h 16.767 v -16.768 h -16.767 z"/></clipPath>
        <clipPath id="clipPath598" clipPathUnits="userSpaceOnUse"><path id="path596" d="M 205.517,194.924 H 367.908 V 174.367 H 205.517 Z"/></clipPath>
        <clipPath id="clipPath614" clipPathUnits="userSpaceOnUse"><path id="path612" d="m 179.693,192.368 h 16.768 V 175.6 h -16.768 z"/></clipPath>
        <clipPath id="clipPath670" clipPathUnits="userSpaceOnUse"><path id="path668" d="M 0,500 H 500 V 0 H 0 Z"/></clipPath>
        <clipPath id="clipPath682" clipPathUnits="userSpaceOnUse"><path id="path680" d="m 369.7,183.097 h 28.553 V 106.649 H 369.7 Z"/></clipPath>
        <clipPath id="clipPath706" clipPathUnits="userSpaceOnUse"><path id="path704" d="M 0,500 H 500 V 0 H 0 Z"/></clipPath>
        <clipPath id="clipPath718" clipPathUnits="userSpaceOnUse"><path id="path716" d="m 110.451,153.044 h 18.901 v -39.9 h -18.901 z"/></clipPath>
        <clipPath id="clipPath738" clipPathUnits="userSpaceOnUse"><path id="path736" d="m 130.186,248.118 h 28.61 v -55.23 h -28.61 z"/></clipPath>
        <clipPath id="clipPath754" clipPathUnits="userSpaceOnUse"><path id="path752" d="m 103.309,240.268 h 22.207 v -51.59 h -22.207 z"/></clipPath>
        <clipPath id="clipPath798" clipPathUnits="userSpaceOnUse"><path id="path796" d="m 107.257,272.137 h 33.287 v -6.995 h -33.287 z"/></clipPath>
        <clipPath id="clipPath830" clipPathUnits="userSpaceOnUse"><path id="path828" d="m 101.462,306.539 h 29.406 v -37.134 h -29.406 z"/></clipPath>
        <clipPath id="clipPath850" clipPathUnits="userSpaceOnUse"><path id="path848" d="m 114.925,328.566 h 9.369 v -6.21 h -9.369 z"/></clipPath>
        <clipPath id="clipPath914" clipPathUnits="userSpaceOnUse"><path id="path912" d="m 105.832,320.154 h 27.246 V 302.95 h -27.246 z"/></clipPath>
        <clipPath id="clipPath930" clipPathUnits="userSpaceOnUse"><path id="path928" d="m 112.548,320.154 h 15.92 v -10.681 h -15.92 z"/></clipPath>
        <clipPath id="clipPath978" clipPathUnits="userSpaceOnUse"><path id="path976" d="m 127.692,307.166 h 14.011 v -20.493 h -14.011 z"/></clipPath>
        <clipPath id="clipPath998" clipPathUnits="userSpaceOnUse"><path id="path996" d="m 110.957,293.459 h 3.609 v -10.754 h -3.609 z"/></clipPath>
        <clipPath id="clipPath1018" clipPathUnits="userSpaceOnUse"><path id="path1016" d="m 189.969,326.246 h 8.265 v -9.831 h -8.265 z"/></clipPath>
    </defs>
    <g transform="matrix(1.3333333,0,0,-1.3333333,0,666.66667)" id="g10"><path id="path12" style="fill:#ececec;fill-opacity:1;fill-rule:nonzero;stroke:none" d="m 0,117.352 h 500 v 0.249 H 0 Z"/><path id="path14" style="fill:#ececec;fill-opacity:1;fill-rule:nonzero;stroke:none" d="m 416.779,101.256 h 33.122 v 0.249 h -33.122 z"/><path id="path16" style="fill:#ececec;fill-opacity:1;fill-rule:nonzero;stroke:none" d="m 322.527,98.542 h 8.693 v 0.25 h -8.693 z"/><path id="path18" style="fill:#ececec;fill-opacity:1;fill-rule:nonzero;stroke:none" d="m 396.586,110.542 h 19.192 v 0.25 h -19.192 z"/><path id="path20" style="fill:#ececec;fill-opacity:1;fill-rule:nonzero;stroke:none" d="m 52.459,108.861 h 43.193 v 0.25 H 52.459 Z"/><path id="path22" style="fill:#ececec;fill-opacity:1;fill-rule:nonzero;stroke:none" d="m 104.556,108.861 h 6.333 v 0.25 h -6.333 z"/><path id="path24" style="fill:#ececec;fill-opacity:1;fill-rule:nonzero;stroke:none" d="m 131.471,104.639 h 93.676 v 0.25 h -93.676 z"/><g id="g26">
            <g clip-path="url(#clipPath32)" id="g28">
                <g transform="translate(43.915,444.7974)" id="g34"><path id="path36" style="fill:#ececec;fill-opacity:1;fill-rule:nonzero;stroke:none" d="m 0,0 c -3.01,0 -5.458,-2.448 -5.458,-5.458 v -271.431 c 0,-3.01 2.448,-5.458 5.458,-5.458 h 193.099 c 3.008,0 5.457,2.448 5.457,5.458 V -5.458 c 0,3.01 -2.449,5.458 -5.457,5.458 z M 193.099,-282.597 H 0 c -3.147,0 -5.708,2.56 -5.708,5.708 V -5.458 c 0,3.147 2.561,5.708 5.708,5.708 h 193.099 c 3.146,0 5.707,-2.561 5.707,-5.708 v -271.431 c 0,-3.148 -2.561,-5.708 -5.707,-5.708"/></g>
                <g transform="translate(260.2119,444.7974)" id="g38"><path id="path40" style="fill:#ececec;fill-opacity:1;fill-rule:nonzero;stroke:none" d="m 0,0 c -3.009,0 -5.457,-2.448 -5.457,-5.458 v -271.431 c 0,-3.01 2.448,-5.458 5.457,-5.458 h 193.099 c 3.009,0 5.458,2.448 5.458,5.458 V -5.458 c 0,3.01 -2.449,5.458 -5.458,5.458 z M 193.099,-282.597 H 0 c -3.146,0 -5.707,2.56 -5.707,5.708 V -5.458 c 0,3.147 2.561,5.708 5.707,5.708 h 193.099 c 3.147,0 5.708,-2.561 5.708,-5.708 v -271.431 c 0,-3.148 -2.561,-5.708 -5.708,-5.708"/></g><path id="path42" style="fill:#f5f5f5;fill-opacity:1;fill-rule:nonzero;stroke:none" d="M 183.002,194.646 H 88.329 V 407.92 h 94.673 z"/><path id="path44" style="fill:#fafafa;fill-opacity:1;fill-rule:nonzero;stroke:none" d="m 91.901,403.92 h 87.53 V 198.646 h -87.53 z"/><path id="path46" style="fill:#f5f5f5;fill-opacity:1;fill-rule:nonzero;stroke:none" d="M 136.672,404.948 H 134.66 V 196.646 h 2.012 z"/><path id="path48" style="fill:#f5f5f5;fill-opacity:1;fill-rule:nonzero;stroke:none" d="M 185.187,400.659 H 86.145 v 10.037 h 99.042 z"/><path id="path50" style="fill:#f5f5f5;fill-opacity:1;fill-rule:nonzero;stroke:none" d="M 185.187,398.358 H 86.145 v 1.189 h 99.042 z"/><path id="path52" style="fill:#f5f5f5;fill-opacity:1;fill-rule:nonzero;stroke:none" d="M 185.187,395.658 H 86.145 v 1.189 h 99.042 z"/><path id="path54" style="fill:#f5f5f5;fill-opacity:1;fill-rule:nonzero;stroke:none" d="M 185.187,392.958 H 86.145 v 1.189 h 99.042 z"/><path id="path56" style="fill:#f5f5f5;fill-opacity:1;fill-rule:nonzero;stroke:none" d="M 185.187,390.257 H 86.145 v 1.189 h 99.042 z"/><path id="path58" style="fill:#f5f5f5;fill-opacity:1;fill-rule:nonzero;stroke:none" d="M 185.187,387.557 H 86.145 v 1.189 h 99.042 z"/><path id="path60" style="fill:#f5f5f5;fill-opacity:1;fill-rule:nonzero;stroke:none" d="M 185.187,384.857 H 86.145 v 1.189 h 99.042 z"/><path id="path62" style="fill:#f5f5f5;fill-opacity:1;fill-rule:nonzero;stroke:none" d="M 185.187,382.157 H 86.145 v 1.189 h 99.042 z"/><path id="path64" style="fill:#f5f5f5;fill-opacity:1;fill-rule:nonzero;stroke:none" d="M 185.187,379.457 H 86.145 v 1.189 h 99.042 z"/><path id="path66" style="fill:#f5f5f5;fill-opacity:1;fill-rule:nonzero;stroke:none" d="M 185.187,376.757 H 86.145 v 1.189 h 99.042 z"/><path id="path68" style="fill:#f5f5f5;fill-opacity:1;fill-rule:nonzero;stroke:none" d="M 185.187,374.057 H 86.145 v 1.189 h 99.042 z"/><path id="path70" style="fill:#f5f5f5;fill-opacity:1;fill-rule:nonzero;stroke:none" d="M 185.187,371.356 H 86.145 v 1.19 h 99.042 z"/><path id="path72" style="fill:#f5f5f5;fill-opacity:1;fill-rule:nonzero;stroke:none" d="M 185.187,368.657 H 86.145 v 1.189 h 99.042 z"/><path id="path74" style="fill:#f5f5f5;fill-opacity:1;fill-rule:nonzero;stroke:none" d="M 185.187,365.957 H 86.145 v 1.189 h 99.042 z"/><path id="path76" style="fill:#f5f5f5;fill-opacity:1;fill-rule:nonzero;stroke:none" d="M 185.187,363.256 H 86.145 v 1.189 h 99.042 z"/><path id="path78" style="fill:#f5f5f5;fill-opacity:1;fill-rule:nonzero;stroke:none" d="M 185.187,360.556 H 86.145 v 1.189 h 99.042 z"/><path id="path80" style="fill:#f5f5f5;fill-opacity:1;fill-rule:nonzero;stroke:none" d="M 185.187,357.856 H 86.145 v 1.189 h 99.042 z"/><path id="path82" style="fill:#f5f5f5;fill-opacity:1;fill-rule:nonzero;stroke:none" d="M 185.187,355.156 H 86.145 v 1.19 h 99.042 z"/><path id="path84" style="fill:#f5f5f5;fill-opacity:1;fill-rule:nonzero;stroke:none" d="M 185.187,352.456 H 86.145 v 1.189 h 99.042 z"/><path id="path86" style="fill:#f5f5f5;fill-opacity:1;fill-rule:nonzero;stroke:none" d="M 295.088,194.646 H 200.415 V 407.92 h 94.673 z"/><path id="path88" style="fill:#fafafa;fill-opacity:1;fill-rule:nonzero;stroke:none" d="m 203.987,403.92 h 87.53 V 198.646 h -87.53 z"/><path id="path90" style="fill:#f5f5f5;fill-opacity:1;fill-rule:nonzero;stroke:none" d="m 248.758,404.948 h -2.012 V 196.646 h 2.012 z"/><path id="path92" style="fill:#f5f5f5;fill-opacity:1;fill-rule:nonzero;stroke:none" d="M 297.273,400.659 H 198.23 v 10.037 h 99.043 z"/><path id="path94" style="fill:#f5f5f5;fill-opacity:1;fill-rule:nonzero;stroke:none" d="M 297.273,398.358 H 198.23 v 1.189 h 99.043 z"/><path id="path96" style="fill:#f5f5f5;fill-opacity:1;fill-rule:nonzero;stroke:none" d="M 297.273,395.658 H 198.23 v 1.189 h 99.043 z"/><path id="path98" style="fill:#f5f5f5;fill-opacity:1;fill-rule:nonzero;stroke:none" d="M 297.273,392.958 H 198.23 v 1.189 h 99.043 z"/><path id="path100" style="fill:#f5f5f5;fill-opacity:1;fill-rule:nonzero;stroke:none" d="M 297.273,390.257 H 198.23 v 1.189 h 99.043 z"/><path id="path102" style="fill:#f5f5f5;fill-opacity:1;fill-rule:nonzero;stroke:none" d="M 297.273,387.557 H 198.23 v 1.189 h 99.043 z"/><path id="path104" style="fill:#f5f5f5;fill-opacity:1;fill-rule:nonzero;stroke:none" d="M 297.273,384.857 H 198.23 v 1.189 h 99.043 z"/><path id="path106" style="fill:#f5f5f5;fill-opacity:1;fill-rule:nonzero;stroke:none" d="M 297.273,382.157 H 198.23 v 1.189 h 99.043 z"/><path id="path108" style="fill:#f5f5f5;fill-opacity:1;fill-rule:nonzero;stroke:none" d="M 297.273,379.457 H 198.23 v 1.189 h 99.043 z"/><path id="path110" style="fill:#f5f5f5;fill-opacity:1;fill-rule:nonzero;stroke:none" d="M 297.273,376.757 H 198.23 v 1.189 h 99.043 z"/><path id="path112" style="fill:#f5f5f5;fill-opacity:1;fill-rule:nonzero;stroke:none" d="M 297.273,374.057 H 198.23 v 1.189 h 99.043 z"/><path id="path114" style="fill:#f5f5f5;fill-opacity:1;fill-rule:nonzero;stroke:none" d="M 297.273,371.356 H 198.23 v 1.19 h 99.043 z"/><path id="path116" style="fill:#f5f5f5;fill-opacity:1;fill-rule:nonzero;stroke:none" d="M 297.273,368.657 H 198.23 v 1.189 h 99.043 z"/><path id="path118" style="fill:#f5f5f5;fill-opacity:1;fill-rule:nonzero;stroke:none" d="M 297.273,365.957 H 198.23 v 1.189 h 99.043 z"/><path id="path120" style="fill:#f5f5f5;fill-opacity:1;fill-rule:nonzero;stroke:none" d="M 297.273,363.256 H 198.23 v 1.189 h 99.043 z"/><path id="path122" style="fill:#f5f5f5;fill-opacity:1;fill-rule:nonzero;stroke:none" d="M 297.273,360.556 H 198.23 v 1.189 h 99.043 z"/><path id="path124" style="fill:#f5f5f5;fill-opacity:1;fill-rule:nonzero;stroke:none" d="M 297.273,357.856 H 198.23 v 1.189 h 99.043 z"/><path id="path126" style="fill:#f5f5f5;fill-opacity:1;fill-rule:nonzero;stroke:none" d="M 297.273,355.156 H 198.23 v 1.19 h 99.043 z"/><path id="path128" style="fill:#f5f5f5;fill-opacity:1;fill-rule:nonzero;stroke:none" d="M 297.273,352.456 H 198.23 v 1.189 h 99.043 z"/><path id="path130" style="fill:#f5f5f5;fill-opacity:1;fill-rule:nonzero;stroke:none" d="M 407.174,194.646 H 312.501 V 407.92 h 94.673 z"/><path id="path132" style="fill:#fafafa;fill-opacity:1;fill-rule:nonzero;stroke:none" d="m 316.073,403.92 h 87.53 V 198.646 h -87.53 z"/><path id="path134" style="fill:#f5f5f5;fill-opacity:1;fill-rule:nonzero;stroke:none" d="m 360.844,404.948 h -2.012 V 196.646 h 2.012 z"/><path id="path136" style="fill:#f5f5f5;fill-opacity:1;fill-rule:nonzero;stroke:none" d="m 409.359,400.659 h -99.043 v 10.037 h 99.043 z"/><path id="path138" style="fill:#f5f5f5;fill-opacity:1;fill-rule:nonzero;stroke:none" d="m 409.359,398.358 h -99.043 v 1.189 h 99.043 z"/><path id="path140" style="fill:#f5f5f5;fill-opacity:1;fill-rule:nonzero;stroke:none" d="m 409.359,395.658 h -99.043 v 1.189 h 99.043 z"/><path id="path142" style="fill:#f5f5f5;fill-opacity:1;fill-rule:nonzero;stroke:none" d="m 409.359,392.958 h -99.043 v 1.189 h 99.043 z"/><path id="path144" style="fill:#f5f5f5;fill-opacity:1;fill-rule:nonzero;stroke:none" d="m 409.359,390.257 h -99.043 v 1.189 h 99.043 z"/><path id="path146" style="fill:#f5f5f5;fill-opacity:1;fill-rule:nonzero;stroke:none" d="m 409.359,387.557 h -99.043 v 1.189 h 99.043 z"/><path id="path148" style="fill:#f5f5f5;fill-opacity:1;fill-rule:nonzero;stroke:none" d="m 409.359,384.857 h -99.043 v 1.189 h 99.043 z"/><path id="path150" style="fill:#f5f5f5;fill-opacity:1;fill-rule:nonzero;stroke:none" d="m 409.359,382.157 h -99.043 v 1.189 h 99.043 z"/><path id="path152" style="fill:#f5f5f5;fill-opacity:1;fill-rule:nonzero;stroke:none" d="m 409.359,379.457 h -99.043 v 1.189 h 99.043 z"/><path id="path154" style="fill:#f5f5f5;fill-opacity:1;fill-rule:nonzero;stroke:none" d="m 409.359,376.757 h -99.043 v 1.189 h 99.043 z"/><path id="path156" style="fill:#f5f5f5;fill-opacity:1;fill-rule:nonzero;stroke:none" d="m 409.359,374.057 h -99.043 v 1.189 h 99.043 z"/><path id="path158" style="fill:#f5f5f5;fill-opacity:1;fill-rule:nonzero;stroke:none" d="m 409.359,371.356 h -99.043 v 1.19 h 99.043 z"/><path id="path160" style="fill:#f5f5f5;fill-opacity:1;fill-rule:nonzero;stroke:none" d="m 409.359,368.657 h -99.043 v 1.189 h 99.043 z"/><path id="path162" style="fill:#f5f5f5;fill-opacity:1;fill-rule:nonzero;stroke:none" d="m 409.359,365.957 h -99.043 v 1.189 h 99.043 z"/><path id="path164" style="fill:#f5f5f5;fill-opacity:1;fill-rule:nonzero;stroke:none" d="m 409.359,363.256 h -99.043 v 1.189 h 99.043 z"/><path id="path166" style="fill:#f5f5f5;fill-opacity:1;fill-rule:nonzero;stroke:none" d="m 409.359,360.556 h -99.043 v 1.189 h 99.043 z"/><path id="path168" style="fill:#f5f5f5;fill-opacity:1;fill-rule:nonzero;stroke:none" d="m 409.359,357.856 h -99.043 v 1.189 h 99.043 z"/><path id="path170" style="fill:#f5f5f5;fill-opacity:1;fill-rule:nonzero;stroke:none" d="m 409.359,355.156 h -99.043 v 1.19 h 99.043 z"/><path id="path172" style="fill:#f5f5f5;fill-opacity:1;fill-rule:nonzero;stroke:none" d="m 409.359,352.456 h -99.043 v 1.189 h 99.043 z"/><g transform="translate(331.8472,217.4795)" id="g174"><path id="path176" style="fill:#f5f5f5;fill-opacity:1;fill-rule:nonzero;stroke:none" d="m 0,0 v 0 h 120.141 c 0,-4.411 -3.472,-8.032 -7.878,-8.231 C 99.352,-8.813 79.49,-10.856 73.191,-18 61.45,-31.316 62.587,-78.095 76.651,-88.93 c 4.41,-3.396 17.265,-10.141 17.265,-10.141 H 26.225 c 0,0 12.012,6.881 16.187,10.141 13.983,10.923 14.391,57.674 2.594,70.93 -6.052,6.801 -24.669,8.997 -37.16,9.69 C 3.44,-8.065 0,-4.413 0,0"/></g>
                <g transform="translate(437.106,208.8125)" id="g178"><path id="path180" style="fill:#e7e7e7;fill-opacity:1;fill-rule:nonzero;stroke:none" d="m 0,0 c -12.203,-0.979 -26.828,-3.39 -32.067,-9.333 -1.551,-1.759 -2.871,-4.114 -3.972,-6.881 h -20.179 c -1.131,2.77 -2.472,5.125 -4.034,6.881 -5.26,5.91 -20.006,8.342 -31.977,9.333 z"/></g>
                <g transform="translate(383.0239,217.4209)" id="g182"><path id="path184" style="fill:#ececec;fill-opacity:1;fill-rule:nonzero;stroke:none" d="M 0,0 1.634,18.674 H -22.048 L -23.682,0 Z"/></g>
                <g transform="translate(383.0239,217.4209)" id="g186"><path id="path188" style="fill:#e1e1e1;fill-opacity:1;fill-rule:nonzero;stroke:none" d="M 0,0 1.634,18.674 H 2.909 L 1.275,0 Z"/></g>
                <g transform="translate(380.7759,219.3242)" id="g190"><path id="path192" style="fill:#f0f0f0;fill-opacity:1;fill-rule:nonzero;stroke:none" d="M 0,0 1.301,14.866 H -17.552 L -18.853,0 Z"/></g>
                <g transform="translate(379.3311,220.5488)" id="g194"><path id="path196" style="fill:#fafafa;fill-opacity:1;fill-rule:nonzero;stroke:none" d="M 0,0 1.086,12.418 H -14.663 L -15.749,0 Z"/></g>
                <g transform="translate(390.7056,217.4795)" id="g198"><path id="path200" style="fill:#e7e7e7;fill-opacity:1;fill-rule:nonzero;stroke:none" d="M 0,0 H 23.79 L 21.15,30.169 H -2.639 Z"/></g>
                <g transform="translate(390.7056,217.4795)" id="g202"><path id="path204" style="fill:#e1e1e1;fill-opacity:1;fill-rule:nonzero;stroke:none" d="m 0,0 h -1.136 l -2.639,30.169 h 1.136 z"/></g>
                <g transform="translate(392.8623,220.5547)" id="g206"><path id="path208" style="fill:#f0f0f0;fill-opacity:1;fill-rule:nonzero;stroke:none" d="M 0,0 H 18.938 L 16.837,24.019 H -2.102 Z"/></g>
                <g transform="translate(394.248,222.5322)" id="g210"><path id="path212" style="fill:#fafafa;fill-opacity:1;fill-rule:nonzero;stroke:none" d="M 0,0 H 15.821 L 14.065,20.063 H -1.755 Z"/></g>
                <g transform="translate(402.2388,233.5684)" id="g214"><path id="path216" style="fill:#ececec;fill-opacity:1;fill-rule:nonzero;stroke:none" d="m 0,0 v 0 c -1.075,-1.074 -2.817,-1.074 -3.892,0 -1.075,1.075 -1.075,2.817 0,3.893 1.075,1.074 2.817,1.074 3.892,0 C 1.075,2.817 1.075,1.075 0,0"/></g>
                <g transform="translate(401.0742,230.1982)" id="g218"><path id="path220" style="fill:#f0f0f0;fill-opacity:1;fill-rule:nonzero;stroke:none" d="M 0,0 V 0 C 0.787,0.786 2.063,0.786 2.85,0 4.12,-1.27 3.22,-3.44 1.425,-3.44 -0.37,-3.44 -1.27,-1.27 0,0"/></g>
                <g transform="translate(166.4551,124.5781)" id="g222"><path id="path224" style="fill:#f5f5f5;fill-opacity:1;fill-rule:nonzero;stroke:none" d="M 0,0 H 23.17 L 10.99,99.207 c -0.516,4.199 -4.339,7.604 -8.538,7.604 H -5.511 -98.649 L -83.828,0 Z"/></g>
                <g transform="translate(92.9683,124.5781)" id="g226"><path id="path228" style="fill:#f0f0f0;fill-opacity:1;fill-rule:nonzero;stroke:none" d="m 0,0 h -23.17 l -12.181,99.207 c -0.516,4.199 2.47,7.604 6.67,7.604 h 7.963 c 4.199,0 8.021,-3.405 8.537,-7.604 z"/></g>
                <g transform="translate(101.5049,124.6963)" id="g230"><path id="path232" style="fill:#e7e7e7;fill-opacity:1;fill-rule:nonzero;stroke:none" d="m 0,0 -4.198,47.983 c -0.187,2.144 -1.843,3.867 -3.977,4.139 l -1.727,0.221 c -2.863,0.364 -5.084,2.676 -5.335,5.551 l -0.766,8.749 c -0.313,3.586 2.513,6.67 6.112,6.67 h -38.723 c -3.599,0 -6.426,-3.084 -6.112,-6.67 l 0.766,-8.749 c 0.251,-2.875 2.473,-5.187 5.335,-5.551 l 1.727,-0.221 c 2.134,-0.272 3.79,-1.995 3.977,-4.139 L -38.723,0 c 0.306,-3.498 3.235,-6.183 6.747,-6.183 H 6.747 C 3.235,-6.183 0.306,-3.498 0,0"/></g>
                <g transform="translate(208.0679,184.6924)" id="g234"><path id="path236" style="fill:#e7e7e7;fill-opacity:1;fill-rule:nonzero;stroke:none" d="M 0,0 C 0.659,7.535 6.968,13.316 14.533,13.316 H -4.205 -19.179 C -26.743,13.316 -33.053,7.535 -33.712,0 l -3.328,-38.037 h 33.712 z"/></g>
                <g transform="translate(237.5752,198.0088)" id="g238"><path id="path240" style="fill:#f0f0f0;fill-opacity:1;fill-rule:nonzero;stroke:none" d="m 0,0 h -14.975 c -7.564,0 -13.873,-5.781 -14.532,-13.316 l -3.328,-38.038 h -80.29 l -3.328,38.038 C -117.113,-5.781 -123.422,0 -130.986,0 h -14.975 c -3.6,0 -6.426,-3.084 -6.112,-6.67 l 0.765,-8.749 c 0.252,-2.875 2.473,-5.186 5.336,-5.551 l 1.726,-0.22 c 2.134,-0.273 3.79,-1.996 3.978,-4.139 l 4.198,-47.984 c 0.306,-3.498 3.235,-6.182 6.747,-6.182 h 112.685 c 3.512,0 6.441,2.684 6.747,6.182 l 4.199,47.984 c 0.187,2.143 1.842,3.866 3.977,4.139 l 1.726,0.219 c 2.863,0.366 5.084,2.677 5.336,5.552 L 6.112,-6.67 C 6.426,-3.084 3.6,0 0,0"/></g>
            </g>
        </g>
        <g id="g242">
            <g clip-path="url(#clipPath248)" id="g244">
                <g transform="translate(104.5557,398.375)" id="g250"><path id="path252" style="fill:#50e3a39d;fill-opacity:1;fill-rule:nonzero;stroke:none" d="m 0,0 c 27.919,59.449 127.059,51.062 165.317,9.255 38.258,-41.806 50.696,-68.599 85.208,-52.983 34.513,15.617 78.518,11.44 81.043,-38.164 2.525,-49.604 -37.913,-108.263 -102.09,-125.615 -64.177,-17.351 -64.161,-78.759 -149.1,-66.368 -46.31,6.755 -47.365,56.86 -40.825,98.301 C 46.093,-134.133 -32.378,-68.943 0,0"/></g>
                <g id="g254"><g id="g256"/><g id="g268">
                        <g style="opacity:0.89999402" id="g266" clip-path="url(#clipPath260)">
                            <g id="g264" transform="translate(104.5557,398.375)"><path id="path262" style="fill:#ffffff;fill-opacity:1;fill-rule:nonzero;stroke:none" d="m 0,0 c 27.919,59.449 127.059,51.062 165.317,9.255 38.258,-41.806 50.696,-68.599 85.208,-52.983 34.513,15.617 78.518,11.44 81.043,-38.164 2.525,-49.604 -37.913,-108.263 -102.09,-125.615 -64.177,-17.351 -64.161,-78.759 -149.1,-66.368 -46.31,6.755 -47.365,56.86 -40.825,98.301 C 46.093,-134.133 -32.378,-68.943 0,0"/></g>
                        </g>
                    </g>
                </g>
            </g>
        </g>
        <g id="g270">
            <g clip-path="url(#clipPath276)" id="g272">
                <g transform="translate(443.8892,83.7617)" id="g278"><path id="path280" style="fill:#f5f5f5;fill-opacity:1;fill-rule:nonzero;stroke:none" d="m 0,0 c 0,-6.254 -86.807,-11.323 -193.889,-11.323 -107.082,0 -193.889,5.069 -193.889,11.323 0,6.254 86.807,11.323 193.889,11.323 C -86.807,11.323 0,6.254 0,0"/></g>
            </g>
        </g>
        <g id="g282">
            <g clip-path="url(#clipPath288)" id="g284">
                <g transform="translate(380.0498,156.4258)" id="g290"><path id="path292" style="fill:#50e3a39d;fill-opacity:1;fill-rule:nonzero;stroke:none" d="m 0,0 h -211.088 c -2.406,0 -4.356,1.95 -4.356,4.355 v 194.02 c 0,2.406 1.95,4.355 4.356,4.355 H 0 c 2.406,0 4.356,-1.949 4.356,-4.355 V 4.355 C 4.356,1.95 2.406,0 0,0"/></g>
                <g id="g294"><g id="g296"/><g id="g308">
                        <g style="opacity:0.39999402" id="g306" clip-path="url(#clipPath300)">
                            <g id="g304" transform="translate(380.0498,156.4258)"><path id="path302" style="fill:#ffffff;fill-opacity:1;fill-rule:nonzero;stroke:none" d="m 0,0 h -211.088 c -2.406,0 -4.356,1.95 -4.356,4.355 v 194.02 c 0,2.406 1.95,4.355 4.356,4.355 H 0 c 2.406,0 4.356,-1.949 4.356,-4.355 V 4.355 C 4.356,1.95 2.406,0 0,0"/></g>
                        </g>
                    </g>
                </g>
                <g id="g310"><g id="g312"/><g id="g324">
                        <g style="opacity:0.60000598" id="g322" clip-path="url(#clipPath316)">
                            <g id="g320" transform="translate(167.0215,318.3926)"><path id="path318" style="fill:#ffffff;fill-opacity:1;fill-rule:nonzero;stroke:none" d="m 0,0 v -156.707 c 0,-1.568 1.276,-2.845 2.845,-2.845 h 209.279 c 1.568,0 2.844,1.277 2.844,2.845 V 0 Z"/></g>
                        </g>
                    </g>
                </g>
                <g transform="translate(260.2861,327.3306)" id="g326"><path id="path328" style="fill:#50e3a39d;fill-opacity:1;fill-rule:nonzero;stroke:none" d="m 0,0 h -54.828 c -1.045,0 -1.892,0.847 -1.892,1.891 v 16.775 c 0,1.044 0.847,1.891 1.892,1.891 H 0 c 1.044,0 1.891,-0.847 1.891,-1.891 V 1.891 C 1.891,0.847 1.044,0 0,0"/></g>
                <g transform="translate(230.0464,336.1006)" id="g330"><path id="path332" style="fill:#ffffff;fill-opacity:1;fill-rule:nonzero;stroke:none" d="M 0,0 -2.328,5.209 -4.655,0 Z m 0.374,-0.832 h -5.403 l -1.164,-2.59 H -7.26 l 4.434,9.698 h 1.011 L 2.619,-3.422 H 1.538 Z"/></g>
                <g transform="translate(238.1694,333.5649)" id="g334"><path id="path336" style="fill:#ffffff;fill-opacity:1;fill-rule:nonzero;stroke:none" d="M 0,0 C 2.577,0 4.24,1.635 4.24,3.962 4.24,6.29 2.577,7.925 0,7.925 H -2.868 V 0 Z m -3.893,8.812 h 3.949 c 3.103,0 5.195,-1.996 5.195,-4.85 0,-2.854 -2.092,-4.849 -5.195,-4.849 h -3.949 z"/></g>
                <g transform="translate(249.6177,333.5649)" id="g338"><path id="path340" style="fill:#ffffff;fill-opacity:1;fill-rule:nonzero;stroke:none" d="M 0,0 C 2.577,0 4.24,1.635 4.24,3.962 4.24,6.29 2.577,7.925 0,7.925 H -2.868 V 0 Z m -3.893,8.812 h 3.949 c 3.103,0 5.195,-1.996 5.195,-4.85 0,-2.854 -2.092,-4.849 -5.195,-4.849 h -3.949 z"/></g>
                <g transform="translate(208.7559,337.6089)" id="g342"><path id="path344" style="fill:none;stroke:#ffffff;stroke-width:1;stroke-linecap:butt;stroke-linejoin:miter;stroke-miterlimit:10;stroke-dasharray:none;stroke-opacity:1" d="M 0,0 H 8.919"/></g>
                <g transform="translate(213.2153,342.0684)" id="g346"><path id="path348" style="fill:none;stroke:#ffffff;stroke-width:1;stroke-linecap:butt;stroke-linejoin:miter;stroke-miterlimit:10;stroke-dasharray:none;stroke-opacity:1" d="M 0,0 V -8.919"/></g><path id="path350" style="fill:#ffffff;fill-opacity:1;fill-rule:nonzero;stroke:#50e3a39d;stroke-width:1;stroke-linecap:round;stroke-linejoin:round;stroke-miterlimit:10;stroke-dasharray:none;stroke-opacity:1" d="m 194.01,330.271 h -15.768 v 15.768 h 15.768 z"/><g id="g352"><g id="g354"/><g id="g366">
                        <g style="opacity:0.60000598" id="g364" clip-path="url(#clipPath358)">
                            <g id="g362" transform="translate(364.0654,287.4731)"><path id="path360" style="fill:#50e3a39d;fill-opacity:1;fill-rule:nonzero;stroke:none" d="m 0,0 h -158.607 c -1.045,0 -1.892,0.847 -1.892,1.892 v 16.774 c 0,1.044 0.847,1.891 1.892,1.891 L 0,20.557 c 1.044,0 1.892,-0.847 1.892,-1.891 V 1.892 C 1.892,0.847 1.044,0 0,0"/></g>
                        </g>
                    </g>
                </g>
                <g id="g368"><g id="g370"/><g id="g380">
                        <g style="opacity:0.60000598" id="g378" clip-path="url(#clipPath374)"><path id="path376" style="fill:#ffffff;fill-opacity:1;fill-rule:nonzero;stroke:#50e3a39d;stroke-width:1;stroke-linecap:round;stroke-linejoin:round;stroke-miterlimit:10;stroke-dasharray:none;stroke-opacity:1" d="m 194.01,289.207 h -15.768 v 15.768 h 15.768 z"/></g>
                    </g>
                </g>
                <g transform="translate(212.8335,300.3096)" id="g382"><path id="path384" style="fill:#ffffff;fill-opacity:1;fill-rule:nonzero;stroke:none" d="M 0,0 H -2.672 V 0.695 H 3.477 V 0 H 0.804 V -6.91 H 0 Z"/></g>
                <g transform="translate(221.6909,296.0835)" id="g386"><path id="path388" style="fill:#ffffff;fill-opacity:1;fill-rule:nonzero;stroke:none" d="M 0,0 -1.825,4.085 -3.65,0 Z m 0.293,-0.652 h -4.236 l -0.913,-2.032 h -0.836 l 3.476,7.605 h 0.793 L 2.054,-2.684 H 1.206 Z"/></g>
                <g transform="translate(224.2812,294.3232)" id="g390"><path id="path392" style="fill:#ffffff;fill-opacity:1;fill-rule:nonzero;stroke:none" d="m 0,0 0.315,0.62 c 0.543,-0.533 1.51,-0.924 2.51,-0.924 1.423,0 2.042,0.597 2.042,1.347 0,2.086 -4.682,0.804 -4.682,3.618 0,1.119 0.869,2.086 2.803,2.086 0.858,0 1.749,-0.25 2.357,-0.674 L 5.074,5.432 C 4.421,5.856 3.661,6.062 2.988,6.062 1.597,6.062 0.978,5.443 0.978,4.683 0.978,2.597 5.66,3.857 5.66,1.086 5.66,-0.033 4.769,-0.989 2.825,-0.989 1.684,-0.989 0.565,-0.586 0,0"/></g>
                <g transform="translate(234.0518,296.9741)" id="g394"><path id="path396" style="fill:#ffffff;fill-opacity:1;fill-rule:nonzero;stroke:none" d="m 0,0 -1.554,-1.575 v -1.999 h -0.804 v 7.605 h 0.804 V -0.565 L 2.912,4.031 H 3.835 L 0.543,0.587 4.063,-3.574 H 3.107 Z"/></g>
                <g transform="translate(246.8662,297.2026)" id="g398"><path id="path400" style="fill:#ffffff;fill-opacity:1;fill-rule:nonzero;stroke:none" d="m 0,0 c 0,2.031 -0.913,3.15 -2.238,3.15 -1.325,0 -2.238,-1.119 -2.238,-3.15 0,-2.032 0.913,-3.151 2.238,-3.151 C -0.913,-3.151 0,-2.032 0,0 m -5.269,0 c 0,2.422 1.271,3.867 3.031,3.867 1.76,0 3.042,-1.445 3.042,-3.867 0,-2.423 -1.282,-3.868 -3.042,-3.868 -1.76,0 -3.031,1.445 -3.031,3.868"/></g>
                <g transform="translate(250.8794,301.0049)" id="g402"><path id="path404" style="fill:#ffffff;fill-opacity:1;fill-rule:nonzero;stroke:none" d="m 0,0 v -7.605 h -0.782 v 6.91 H -2.575 V 0 Z"/></g><path id="path406" style="fill:none;stroke:#ffffff;stroke-width:1;stroke-linecap:butt;stroke-linejoin:miter;stroke-miterlimit:10;stroke-dasharray:none;stroke-opacity:1" d="m 357.635,292.79 h -7.645 v 10.393 h 7.645 z"/><g transform="translate(360.1436,301.3906)" id="g408"><path id="path410" style="fill:none;stroke:#ffffff;stroke-width:1;stroke-linecap:butt;stroke-linejoin:miter;stroke-miterlimit:10;stroke-dasharray:none;stroke-opacity:1" d="M 0,0 -5.136,-5.256"/></g>
                <g id="g412"><g id="g414"/><g id="g426">
                        <g style="opacity:0.60000598" id="g424" clip-path="url(#clipPath418)">
                            <g id="g422" transform="translate(364.5532,259.1963)"><path id="path420" style="fill:#50e3a39d;fill-opacity:1;fill-rule:nonzero;stroke:none" d="m 0,0 h -158.608 c -1.044,0 -1.891,0.848 -1.891,1.892 v 16.774 c 0,1.044 0.847,1.892 1.891,1.892 H 0 c 1.044,0 1.892,-0.848 1.892,-1.892 V 1.892 C 1.892,0.848 1.044,0 0,0"/></g>
                        </g>
                    </g>
                </g>
                <g id="g428"><g id="g430"/><g id="g440">
                        <g style="opacity:0.60000598" id="g438" clip-path="url(#clipPath434)"><path id="path436" style="fill:#ffffff;fill-opacity:1;fill-rule:nonzero;stroke:#50e3a39d;stroke-width:1;stroke-linecap:round;stroke-linejoin:round;stroke-miterlimit:10;stroke-dasharray:none;stroke-opacity:1" d="M 194.498,260.93 H 178.73 v 15.768 h 15.768 z"/></g>
                    </g>
                </g>
                <g transform="translate(212.8335,272.0332)" id="g442"><path id="path444" style="fill:#ffffff;fill-opacity:1;fill-rule:nonzero;stroke:none" d="M 0,0 H -2.672 V 0.695 H 3.477 V 0 H 0.804 V -6.909 H 0 Z"/></g>
                <g transform="translate(221.6909,267.8076)" id="g446"><path id="path448" style="fill:#ffffff;fill-opacity:1;fill-rule:nonzero;stroke:none" d="M 0,0 -1.825,4.084 -3.65,0 Z m 0.293,-0.652 h -4.236 l -0.913,-2.032 h -0.836 l 3.476,7.605 h 0.793 L 2.054,-2.684 H 1.206 Z"/></g>
                <g transform="translate(224.2812,266.0469)" id="g450"><path id="path452" style="fill:#ffffff;fill-opacity:1;fill-rule:nonzero;stroke:none" d="m 0,0 0.315,0.62 c 0.543,-0.533 1.51,-0.924 2.51,-0.924 1.423,0 2.042,0.598 2.042,1.347 0,2.086 -4.682,0.805 -4.682,3.618 0,1.119 0.869,2.086 2.803,2.086 0.858,0 1.749,-0.25 2.357,-0.674 L 5.074,5.432 C 4.421,5.856 3.661,6.062 2.988,6.062 1.597,6.062 0.978,5.443 0.978,4.683 0.978,2.597 5.66,3.857 5.66,1.087 5.66,-0.032 4.769,-0.988 2.825,-0.988 1.684,-0.988 0.565,-0.586 0,0"/></g>
                <g transform="translate(234.0518,268.6982)" id="g454"><path id="path456" style="fill:#ffffff;fill-opacity:1;fill-rule:nonzero;stroke:none" d="M 0,0 -1.554,-1.575 V -3.574 H -2.358 V 4.03 h 0.804 V -0.565 L 2.912,4.03 H 3.835 L 0.543,0.586 4.063,-3.574 H 3.107 Z"/></g>
                <g transform="translate(246.8662,268.9268)" id="g458"><path id="path460" style="fill:#ffffff;fill-opacity:1;fill-rule:nonzero;stroke:none" d="m 0,0 c 0,2.031 -0.913,3.15 -2.238,3.15 -1.325,0 -2.238,-1.119 -2.238,-3.15 0,-2.032 0.913,-3.151 2.238,-3.151 C -0.913,-3.151 0,-2.032 0,0 m -5.269,0 c 0,2.422 1.271,3.867 3.031,3.867 1.76,0 3.042,-1.445 3.042,-3.867 0,-2.423 -1.282,-3.868 -3.042,-3.868 -1.76,0 -3.031,1.445 -3.031,3.868"/></g>
                <g transform="translate(253.9644,265.8193)" id="g462"><path id="path464" style="fill:#ffffff;fill-opacity:1;fill-rule:nonzero;stroke:none" d="m 0,0 v -0.695 h -5.334 v 0.553 l 3.161,3.097 c 0.859,0.847 1.022,1.357 1.022,1.879 0,0.88 -0.62,1.423 -1.782,1.423 -0.891,0 -1.575,-0.271 -2.075,-0.847 l -0.554,0.478 c 0.586,0.695 1.532,1.086 2.694,1.086 1.543,0 2.52,-0.782 2.52,-2.053 0,-0.728 -0.228,-1.379 -1.249,-2.379 L -4.183,0 Z"/></g><path id="path466" style="fill:none;stroke:#ffffff;stroke-width:1;stroke-linecap:butt;stroke-linejoin:miter;stroke-miterlimit:10;stroke-dasharray:none;stroke-opacity:1" d="m 358.123,264.514 h -7.645 v 10.392 h 7.645 z"/><g transform="translate(360.6313,273.1143)" id="g468"><path id="path470" style="fill:none;stroke:#ffffff;stroke-width:1;stroke-linecap:butt;stroke-linejoin:miter;stroke-miterlimit:10;stroke-dasharray:none;stroke-opacity:1" d="M 0,0 -5.137,-5.256"/></g>
                <g id="g472"><g id="g474"/><g id="g486">
                        <g style="opacity:0.60000598" id="g484" clip-path="url(#clipPath478)">
                            <g id="g482" transform="translate(365.041,230.9199)"><path id="path480" style="fill:#50e3a39d;fill-opacity:1;fill-rule:nonzero;stroke:none" d="m 0,0 h -158.608 c -1.044,0 -1.892,0.847 -1.892,1.892 v 16.774 c 0,1.045 0.848,1.892 1.892,1.892 H 0 c 1.044,0 1.892,-0.847 1.892,-1.892 V 1.892 C 1.892,0.847 1.044,0 0,0"/></g>
                        </g>
                    </g>
                </g>
                <g id="g488"><g id="g490"/><g id="g500">
                        <g style="opacity:0.60000598" id="g498" clip-path="url(#clipPath494)"><path id="path496" style="fill:#ffffff;fill-opacity:1;fill-rule:nonzero;stroke:#50e3a39d;stroke-width:1;stroke-linecap:round;stroke-linejoin:round;stroke-miterlimit:10;stroke-dasharray:none;stroke-opacity:1" d="m 194.986,232.653 h -15.768 v 15.768 h 15.768 z"/></g>
                    </g>
                </g>
                <g transform="translate(212.8335,243.7578)" id="g502"><path id="path504" style="fill:#ffffff;fill-opacity:1;fill-rule:nonzero;stroke:none" d="m 0,0 h -2.673 v 0.695 h 6.15 V 0 H 0.804 V -6.91 H 0 Z"/></g>
                <g transform="translate(221.6909,239.5312)" id="g506"><path id="path508" style="fill:#ffffff;fill-opacity:1;fill-rule:nonzero;stroke:none" d="M 0,0 -1.825,4.085 -3.65,0 Z m 0.293,-0.652 h -4.237 l -0.912,-2.032 h -0.837 l 3.476,7.606 h 0.794 L 2.053,-2.684 H 1.206 Z"/></g>
                <g transform="translate(224.2808,237.7715)" id="g510"><path id="path512" style="fill:#ffffff;fill-opacity:1;fill-rule:nonzero;stroke:none" d="m 0,0 0.315,0.619 c 0.543,-0.532 1.51,-0.924 2.51,-0.924 1.423,0 2.042,0.598 2.042,1.348 0,2.086 -4.682,0.804 -4.682,3.617 0,1.119 0.869,2.086 2.802,2.086 0.859,0 1.75,-0.25 2.358,-0.674 L 5.073,5.432 C 4.422,5.855 3.661,6.062 2.987,6.062 1.597,6.062 0.978,5.442 0.978,4.682 0.978,2.596 5.66,3.856 5.66,1.086 5.66,-0.033 4.77,-0.989 2.825,-0.989 1.684,-0.989 0.565,-0.587 0,0"/></g>
                <g transform="translate(234.0513,240.4219)" id="g514"><path id="path516" style="fill:#ffffff;fill-opacity:1;fill-rule:nonzero;stroke:none" d="m 0,0 -1.554,-1.575 v -1.999 h -0.803 v 7.605 h 0.803 V -0.564 L 2.912,4.031 H 3.835 L 0.543,0.587 4.063,-3.574 H 3.107 Z"/></g>
                <g transform="translate(246.8657,240.6504)" id="g518"><path id="path520" style="fill:#ffffff;fill-opacity:1;fill-rule:nonzero;stroke:none" d="m 0,0 c 0,2.031 -0.913,3.15 -2.238,3.15 -1.325,0 -2.238,-1.119 -2.238,-3.15 0,-2.032 0.913,-3.15 2.238,-3.15 C -0.913,-3.15 0,-2.032 0,0 m -5.269,0 c 0,2.423 1.271,3.867 3.031,3.867 1.76,0 3.042,-1.444 3.042,-3.867 0,-2.423 -1.282,-3.868 -3.042,-3.868 -1.76,0 -3.031,1.445 -3.031,3.868"/></g>
                <g transform="translate(253.7139,239.0312)" id="g522"><path id="path524" style="fill:#ffffff;fill-opacity:1;fill-rule:nonzero;stroke:none" d="m 0,0 c 0,-1.271 -0.923,-2.249 -2.76,-2.249 -1.097,0 -2.151,0.381 -2.738,0.978 l 0.381,0.62 c 0.489,-0.511 1.368,-0.88 2.357,-0.88 1.26,0 1.956,0.586 1.956,1.531 0,0.913 -0.641,1.51 -2.053,1.51 h -0.544 v 0.576 l 2.108,2.641 h -3.889 v 0.695 h 4.889 V 4.867 L -2.445,2.162 C -0.815,2.075 0,1.217 0,0"/></g><path id="path526" style="fill:none;stroke:#ffffff;stroke-width:1;stroke-linecap:butt;stroke-linejoin:miter;stroke-miterlimit:10;stroke-dasharray:none;stroke-opacity:1" d="m 358.61,236.237 h -7.645 v 10.392 h 7.645 z"/><g transform="translate(361.1191,244.8379)" id="g528"><path id="path530" style="fill:none;stroke:#ffffff;stroke-width:1;stroke-linecap:butt;stroke-linejoin:miter;stroke-miterlimit:10;stroke-dasharray:none;stroke-opacity:1" d="M 0,0 -5.137,-5.256"/></g>
                <g id="g532"><g id="g534"/><g id="g546">
                        <g style="opacity:0.60000598" id="g544" clip-path="url(#clipPath538)">
                            <g id="g542" transform="translate(365.5288,202.6436)"><path id="path540" style="fill:#50e3a39d;fill-opacity:1;fill-rule:nonzero;stroke:none" d="m 0,0 h -158.608 c -1.044,0 -1.892,0.847 -1.892,1.892 v 16.774 c 0,1.044 0.848,1.892 1.892,1.892 H 0 c 1.044,0 1.891,-0.848 1.891,-1.892 V 1.892 C 1.891,0.847 1.044,0 0,0"/></g>
                        </g>
                    </g>
                </g>
                <g id="g548"><g id="g550"/><g id="g560">
                        <g style="opacity:0.60000598" id="g558" clip-path="url(#clipPath554)"><path id="path556" style="fill:#ffffff;fill-opacity:1;fill-rule:nonzero;stroke:#50e3a39d;stroke-width:1;stroke-linecap:round;stroke-linejoin:round;stroke-miterlimit:10;stroke-dasharray:none;stroke-opacity:1" d="m 195.473,204.377 h -15.768 v 15.768 h 15.768 z"/></g>
                    </g>
                </g>
                <g transform="translate(212.8335,215.4805)" id="g562"><path id="path564" style="fill:#ffffff;fill-opacity:1;fill-rule:nonzero;stroke:none" d="m 0,0 h -2.673 v 0.695 h 6.15 V 0 H 0.804 V -6.909 H 0 Z"/></g>
                <g transform="translate(221.6909,211.2549)" id="g566"><path id="path568" style="fill:#ffffff;fill-opacity:1;fill-rule:nonzero;stroke:none" d="M 0,0 -1.825,4.085 -3.65,0 Z m 0.293,-0.652 h -4.237 l -0.912,-2.032 h -0.837 l 3.476,7.605 h 0.794 L 2.053,-2.684 H 1.206 Z"/></g>
                <g transform="translate(224.2808,209.4951)" id="g570"><path id="path572" style="fill:#ffffff;fill-opacity:1;fill-rule:nonzero;stroke:none" d="m 0,0 0.315,0.619 c 0.543,-0.532 1.51,-0.924 2.51,-0.924 1.423,0 2.042,0.598 2.042,1.348 0,2.086 -4.682,0.804 -4.682,3.617 0,1.119 0.869,2.086 2.802,2.086 0.859,0 1.75,-0.25 2.358,-0.673 L 5.073,5.432 C 4.422,5.855 3.661,6.062 2.987,6.062 1.597,6.062 0.978,5.442 0.978,4.683 0.978,2.597 5.66,3.856 5.66,1.086 5.66,-0.033 4.77,-0.989 2.825,-0.989 1.684,-0.989 0.565,-0.587 0,0"/></g>
                <g transform="translate(234.0513,212.1455)" id="g574"><path id="path576" style="fill:#ffffff;fill-opacity:1;fill-rule:nonzero;stroke:none" d="M 0,0 -1.554,-1.575 V -3.574 H -2.357 V 4.03 h 0.803 V -0.564 L 2.912,4.03 H 3.835 L 0.543,0.587 4.063,-3.574 H 3.107 Z"/></g>
                <g transform="translate(246.8657,212.374)" id="g578"><path id="path580" style="fill:#ffffff;fill-opacity:1;fill-rule:nonzero;stroke:none" d="m 0,0 c 0,2.031 -0.913,3.15 -2.238,3.15 -1.325,0 -2.238,-1.119 -2.238,-3.15 0,-2.032 0.913,-3.151 2.238,-3.151 C -0.913,-3.151 0,-2.032 0,0 m -5.269,0 c 0,2.423 1.271,3.867 3.031,3.867 1.76,0 3.042,-1.444 3.042,-3.867 0,-2.423 -1.282,-3.868 -3.042,-3.868 -1.76,0 -3.031,1.445 -3.031,3.868"/></g>
                <g transform="translate(255.2568,210.5703)" id="g582"><path id="path584" style="fill:#ffffff;fill-opacity:1;fill-rule:nonzero;stroke:none" d="M 0,0 H -1.521 V -1.999 H -2.303 V 0 h -4.292 v 0.564 l 4.031,5.041 h 0.869 l -3.889,-4.91 h 3.302 v 1.76 h 0.761 v -1.76 l 1.521,0 z"/></g><path id="path586" style="fill:none;stroke:#ffffff;stroke-width:1;stroke-linecap:butt;stroke-linejoin:miter;stroke-miterlimit:10;stroke-dasharray:none;stroke-opacity:1" d="m 359.098,207.96 h -7.645 v 10.393 h 7.645 z"/><g transform="translate(361.6069,216.5605)" id="g588"><path id="path590" style="fill:none;stroke:#ffffff;stroke-width:1;stroke-linecap:butt;stroke-linejoin:miter;stroke-miterlimit:10;stroke-dasharray:none;stroke-opacity:1" d="M 0,0 -5.137,-5.256"/></g>
                <g id="g592"><g id="g594"/><g id="g606">
                        <g style="opacity:0.60000598" id="g604" clip-path="url(#clipPath598)">
                            <g id="g602" transform="translate(366.0161,174.3672)"><path id="path600" style="fill:#50e3a39d;fill-opacity:1;fill-rule:nonzero;stroke:none" d="m 0,0 h -158.607 c -1.045,0 -1.892,0.847 -1.892,1.892 v 16.773 c 0,1.045 0.847,1.892 1.892,1.892 H 0 c 1.045,0 1.892,-0.847 1.892,-1.892 V 1.892 C 1.892,0.847 1.045,0 0,0"/></g>
                        </g>
                    </g>
                </g>
                <g id="g608"><g id="g610"/><g id="g620">
                        <g style="opacity:0.60000598" id="g618" clip-path="url(#clipPath614)"><path id="path616" style="fill:#ffffff;fill-opacity:1;fill-rule:nonzero;stroke:#50e3a39d;stroke-width:1;stroke-linecap:round;stroke-linejoin:round;stroke-miterlimit:10;stroke-dasharray:none;stroke-opacity:1" d="m 195.961,176.101 h -15.768 v 15.768 h 15.768 z"/></g>
                    </g>
                </g>
                <g transform="translate(212.8335,187.2051)" id="g622"><path id="path624" style="fill:#ffffff;fill-opacity:1;fill-rule:nonzero;stroke:none" d="m 0,0 h -2.673 v 0.695 h 6.15 V 0 H 0.804 V -6.91 H 0 Z"/></g>
                <g transform="translate(221.6909,182.9785)" id="g626"><path id="path628" style="fill:#ffffff;fill-opacity:1;fill-rule:nonzero;stroke:none" d="M 0,0 -1.825,4.085 -3.65,0 Z m 0.293,-0.652 h -4.237 l -0.912,-2.032 h -0.837 l 3.476,7.606 h 0.794 L 2.053,-2.684 H 1.206 Z"/></g>
                <g transform="translate(224.2808,181.2187)" id="g630"><path id="path632" style="fill:#ffffff;fill-opacity:1;fill-rule:nonzero;stroke:none" d="m 0,0 0.315,0.619 c 0.543,-0.532 1.51,-0.924 2.51,-0.924 1.423,0 2.042,0.598 2.042,1.348 0,2.086 -4.682,0.804 -4.682,3.617 0,1.119 0.869,2.086 2.802,2.086 0.859,0 1.75,-0.25 2.358,-0.674 L 5.073,5.432 C 4.422,5.855 3.661,6.062 2.987,6.062 1.597,6.062 0.978,5.442 0.978,4.682 0.978,2.596 5.66,3.856 5.66,1.086 5.66,-0.033 4.77,-0.989 2.825,-0.989 1.684,-0.989 0.565,-0.587 0,0"/></g>
                <g transform="translate(234.0513,183.8691)" id="g634"><path id="path636" style="fill:#ffffff;fill-opacity:1;fill-rule:nonzero;stroke:none" d="m 0,0 -1.554,-1.575 v -1.999 h -0.803 v 7.605 h 0.803 V -0.564 L 2.912,4.031 H 3.835 L 0.543,0.587 4.063,-3.574 H 3.107 Z"/></g>
                <g transform="translate(246.8657,184.0977)" id="g638"><path id="path640" style="fill:#ffffff;fill-opacity:1;fill-rule:nonzero;stroke:none" d="m 0,0 c 0,2.031 -0.913,3.15 -2.238,3.15 -1.325,0 -2.238,-1.119 -2.238,-3.15 0,-2.032 0.913,-3.15 2.238,-3.15 C -0.913,-3.15 0,-2.032 0,0 m -5.269,0 c 0,2.423 1.271,3.867 3.031,3.867 1.76,0 3.042,-1.444 3.042,-3.867 0,-2.423 -1.282,-3.868 -3.042,-3.868 -1.76,0 -3.031,1.445 -3.031,3.868"/></g>
                <g transform="translate(253.9531,182.5332)" id="g642"><path id="path644" style="fill:#ffffff;fill-opacity:1;fill-rule:nonzero;stroke:none" d="m 0,0 c 0,-1.293 -0.902,-2.304 -2.76,-2.304 -1.097,0 -2.14,0.381 -2.727,0.978 l 0.381,0.62 c 0.488,-0.511 1.357,-0.88 2.335,-0.88 1.293,0 1.978,0.63 1.978,1.553 0,0.978 -0.609,1.587 -2.542,1.587 h -1.619 l 0.391,3.813 h 4.161 V 4.672 H -3.878 L -4.139,2.249 h 0.977 C -0.869,2.249 0,1.347 0,0"/></g><path id="path646" style="fill:none;stroke:#ffffff;stroke-width:1;stroke-linecap:butt;stroke-linejoin:miter;stroke-miterlimit:10;stroke-dasharray:none;stroke-opacity:1" d="m 359.586,179.684 h -7.645 v 10.393 h 7.645 z"/><g transform="translate(362.0947,188.2842)" id="g648"><path id="path650" style="fill:none;stroke:#ffffff;stroke-width:1;stroke-linecap:butt;stroke-linejoin:miter;stroke-miterlimit:10;stroke-dasharray:none;stroke-opacity:1" d="M 0,0 -5.137,-5.256"/></g>
                <g transform="translate(355.7427,328.7417)" id="g652"><path id="path654" style="fill:#ffffff;fill-opacity:1;fill-rule:nonzero;stroke:none" d="m 0,0 h -69.885 c -5.246,0 -9.498,4.252 -9.498,9.497 v 10e-4 c 0,5.245 4.252,9.497 9.498,9.497 H 0 c 5.245,0 9.498,-4.252 9.498,-9.497 V 9.497 C 9.498,4.252 5.245,0 0,0"/></g>
                <g transform="translate(354.2324,341.2437)" id="g656"><path id="path658" style="fill:none;stroke:#50e3a39d;stroke-width:1;stroke-linecap:round;stroke-linejoin:round;stroke-miterlimit:10;stroke-dasharray:none;stroke-opacity:1" d="m 0,0 c 1.12,-1.12 1.12,-2.935 0,-4.055 -1.12,-1.119 -2.935,-1.119 -4.054,0 -1.12,1.12 -1.12,2.935 0,4.055 C -2.935,1.119 -1.12,1.119 0,0 Z"/></g>
                <g transform="translate(354.2324,337.189)" id="g660"><path id="path662" style="fill:none;stroke:#50e3a39d;stroke-width:1;stroke-linecap:round;stroke-linejoin:round;stroke-miterlimit:10;stroke-dasharray:none;stroke-opacity:1" d="M 0,0 4.054,-4.054"/></g>
            </g>
        </g>
        <g id="g664">
            <g clip-path="url(#clipPath670)" id="g666">
                <g transform="translate(391.9419,107.3623)" id="g672"><path id="path674" style="fill:#50e3a39d;fill-opacity:1;fill-rule:nonzero;stroke:none" d="m 0,0 c 0,0 -4.953,10.806 0.706,21.459 5.659,10.652 7.299,13.162 3.692,15.345 -3.607,2.181 -5.262,-8.523 -5.262,-8.523 0,0 -3.041,7.365 -0.531,15.072 2.512,7.707 4.086,20.258 0.657,21.605 -3.429,1.347 -0.655,-15.659 -3.63,-21.456 0,0 -2.499,6.453 -2.91,12.644 -0.411,6.19 0.231,16.075 -2.476,18.61 -2.708,2.535 -4.443,0.781 -1.782,-12.88 2.661,-13.66 2.641,-24.765 2.641,-24.765 0,0 -5.876,17.92 -9.821,18.443 -3.945,0.522 -3.939,-5.282 -0.563,-10.315 3.376,-5.033 9.887,-14.051 10.956,-18.69 0,0 -6.451,13.485 -12.255,9.352 -5.802,-4.132 5.052,-12.278 9.889,-15.221 4.837,-2.944 8.197,-21.393 8.197,-21.393 z"/></g>
                <g id="g676"><g id="g678"/><g id="g690">
                        <g style="opacity:0.19999701" id="g688" clip-path="url(#clipPath682)">
                            <g id="g686" transform="translate(391.9419,107.3623)"><path id="path684" style="fill:#000000;fill-opacity:1;fill-rule:nonzero;stroke:none" d="m 0,0 c 0,0 -4.953,10.806 0.706,21.459 5.659,10.652 7.299,13.162 3.692,15.345 -3.607,2.181 -5.262,-8.523 -5.262,-8.523 0,0 -3.041,7.365 -0.531,15.072 2.512,7.707 4.086,20.258 0.657,21.605 -3.429,1.347 -0.655,-15.659 -3.63,-21.456 0,0 -2.499,6.453 -2.91,12.644 -0.411,6.19 0.231,16.075 -2.476,18.61 -2.708,2.535 -4.443,0.781 -1.782,-12.88 2.661,-13.66 2.641,-24.765 2.641,-24.765 0,0 -5.876,17.92 -9.821,18.443 -3.945,0.522 -3.939,-5.282 -0.563,-10.315 3.376,-5.033 9.887,-14.051 10.956,-18.69 0,0 -6.451,13.485 -12.255,9.352 -5.802,-4.132 5.052,-12.278 9.889,-15.221 4.837,-2.944 8.197,-21.393 8.197,-21.393 z"/></g>
                        </g>
                    </g>
                </g>
                <g transform="translate(388.0322,102.9307)" id="g692"><path id="path694" style="fill:#50e3a39d;fill-opacity:1;fill-rule:nonzero;stroke:none" d="m 0,0 c 0,0 4.823,10.879 -0.963,21.446 -5.787,10.568 -7.457,13.052 -3.876,15.288 3.581,2.237 5.364,-8.442 5.364,-8.442 0,0 2.952,7.408 0.35,15.077 -2.604,7.669 -4.329,20.197 -0.916,21.595 3.412,1.397 0.842,-15.649 3.887,-21.401 0,0 2.421,6.491 2.758,12.686 C 6.94,62.445 6.18,72.318 8.857,74.895 11.534,77.47 13.29,75.742 10.792,62.043 8.296,48.344 8.449,37.24 8.449,37.24 c 0,0 5.661,18.006 9.599,18.587 3.938,0.582 4.003,-5.221 0.687,-10.305 C 15.419,40.439 9.017,31.326 8.004,26.671 c 0,0 6.289,13.58 12.142,9.534 C 25.998,32.159 15.242,23.853 10.44,20.837 5.638,17.822 2.5,-0.676 2.5,-0.676 Z"/></g>
                <g transform="translate(410.2759,110.6855)" id="g696"><path id="path698" style="fill:#1a2e35;fill-opacity:1;fill-rule:nonzero;stroke:none" d="m 0,0 h -39.841 l 3.225,-28.51 h 33.391 z"/></g>
            </g>
        </g>
        <g id="g700">
            <g clip-path="url(#clipPath706)" id="g702">
                <g transform="translate(99.5571,107.2744)" id="g708"><path id="path710" style="fill:#cd7a63;fill-opacity:1;fill-rule:nonzero;stroke:none" d="m 0,0 4.83,-2.841 c 0,0 2.339,3.33 7.339,8.7 v 0.01 c 1.4,1.481 2.871,3.12 4.4,4.881 3.061,3.51 6.37,7.52 9.841,11.829 1.02,1.271 2.06,2.57 3.11,3.891 12.089,15.21 25.16,33.09 30.049,45.179 1.52,3.76 2.261,6.951 1.931,9.34 -0.991,7.221 -3.8,18.09 -7.01,28.59 C 49.609,125.63 44.12,140.84 44.12,140.84 L 30.63,117.989 c 0,0 4.14,-9.87 7.91,-20.38 C 42.25,87.29 45.6,76.34 44.359,73.489 44.24,73.21 44.089,72.88 43.919,72.529 41.68,67.89 35.48,57.38 28.439,45.77 27.73,44.6 27.009,43.42 26.29,42.239 22.509,36.04 18.58,29.67 14.939,23.819 13.52,21.52 12.14,19.3 10.83,17.199 4.63,7.229 0,0 0,0"/></g>
                <g id="g712"><g id="g714"/><g id="g726">
                        <g style="opacity:0.19999701" id="g724" clip-path="url(#clipPath718)">
                            <g id="g722" transform="translate(129.3516,133.7441)"><path id="path720" style="fill:#000000;fill-opacity:1;fill-rule:nonzero;stroke:none" d="m 0,0 c -6.38,-8.021 -12.51,-15.3 -17.07,-20.601 -0.65,3.261 -1.31,7.121 -1.83,11.33 C -13.63,-0.811 -7.18,9.63 -1.32,19.3 -1.37,14.18 -1.18,6.609 0,0"/></g>
                        </g>
                    </g>
                </g>
                <g transform="translate(105.2769,199.8643)" id="g728"><path id="path730" style="fill:#cd7a63;fill-opacity:1;fill-rule:nonzero;stroke:none" d="m 0,0 c 1.67,-11.391 4.05,-21.71 5.6,-27.86 0.93,-3.69 1.56,-5.87 1.56,-5.87 -0.09,-11.491 0.83,-23.8 2.06,-35.041 0.51,-4.58 1.06,-8.979 1.63,-13.069 2.1,-15.14 4.31,-26.011 4.31,-26.011 l 5.75,0.75 -0.22,37.09 -0.12,19.66 -0.16,26.75 -0.06,4.661 -0.28,20.339 -0.41,30 -20,9 C -3.02,29 -2.02,13.72 0,0"/></g>
                <g id="g732"><g id="g734"/><g id="g746">
                        <g style="opacity:0.19999701" id="g744" clip-path="url(#clipPath738)">
                            <g id="g742" transform="translate(158.7959,199.6777)"><path id="path740" style="fill:#000000;fill-opacity:1;fill-rule:nonzero;stroke:none" d="m 0,0 c -5.11,-3.53 -12.01,-5.65 -16.73,-6.79 -1.09,3.73 -2.5,7.92 -3.97,12 -3.77,10.51 -7.91,20.38 -7.91,20.38 l 13.49,22.85 c 0,0 5.49,-15.21 10.37,-31.26 C -2.96,11.34 -1.3,5.38 0,0"/></g>
                        </g>
                    </g>
                </g>
                <g id="g748"><g id="g750"/><g id="g762">
                        <g style="opacity:0.19999701" id="g760" clip-path="url(#clipPath754)">
                            <g id="g758" transform="translate(125.5156,188.6777)"><path id="path756" style="fill:#000000;fill-opacity:1;fill-rule:nonzero;stroke:none" d="m 0,0 c -7.49,0.2 -13.62,0.7 -18.59,1.34 -0.58,3.13 -1.15,6.44 -1.65,9.85 -2.02,13.72 -3.02,29 -0.34,40.4 l 20,-9 0.41,-30 z"/></g>
                        </g>
                    </g>
                </g>
                <g transform="translate(159.7632,201.665)" id="g764"><path id="path766" style="fill:#1a2e35;fill-opacity:1;fill-rule:nonzero;stroke:none" d="m 0,0 c -12.51,-7.35 -49.307,-10.467 -49.307,-10.467 l -6.02,16.92 0.656,-16.736 h -1.783 c 0,0 -13.448,45.494 4.417,75.316 l 32,2.47 3.5,-16.481 C -16.537,51.022 -7.52,27.4 0,0"/></g>
                <g transform="translate(136.2998,84.6445)" id="g768"><path id="path770" style="fill:#263237;fill-opacity:1;fill-rule:nonzero;stroke:none" d="m 0,0 c -0.944,0.565 -1.984,0.953 -3.068,1.145 0,0 -3.534,2.633 -6.338,11.673 l -4.205,0.483 c -1.459,0.141 -2.851,-0.644 -3.485,-1.965 -0.089,-0.18 -0.151,-0.371 -0.182,-0.569 -0.068,-1.022 -0.071,-2.046 -0.007,-3.068 0.036,-3.189 1.384,-10.168 1.384,-10.168 l 0.733,0.104 -0.614,6.42 c -0.199,2.18 1.819,-0.124 2.624,-2.388 0.806,-2.265 2.166,-4.604 6.929,-4.046 C -0.676,-1.701 1.592,-1.158 0,0"/></g>
                <g transform="translate(118.1475,358.1279)" id="g772"><path id="path774" style="fill:#1a2e35;fill-opacity:1;fill-rule:nonzero;stroke:none" d="m 0,0 c 0,0 7.996,4.445 14.517,1.137 3.005,-1.525 4.062,-5.412 4.695,-8.443 0.886,-4.238 1.025,-8.587 1.629,-12.865 0.255,-1.808 0.698,-3.573 1.532,-5.206 1.11,-2.173 3.375,-4.344 2.925,-6.998 -0.399,-2.348 -2.795,-3.754 -4.886,-4.396 -5.549,-1.706 -11.828,-0.761 -17.561,-1.124 -4.615,-0.292 -9.066,-1.847 -13.692,-1.959 -1.313,-0.032 -2.685,0.081 -3.813,0.754 -4.455,2.661 -2.513,9.504 -1.069,13.3 1.22,3.209 0.32,6.535 0.713,9.904 0.344,2.948 0.925,5.925 2.084,8.67 C -10.613,-1.743 -5.974,1.162 0,0"/></g>
                <g transform="translate(125.7324,100.6709)" id="g776"><path id="path778" style="fill:#cd7a63;fill-opacity:1;fill-rule:nonzero;stroke:none" d="m 0,0 c 0,0 1.5,-4.095 3.5,-8.595 2,-4.5 4,-6.287 4,-6.287 0,0 -3.475,-1.128 -5.35,1.051 -1.875,2.179 -5.082,10.045 -8.678,9.141 0,0 0.263,0.939 0.801,1.83 C -5.187,-1.97 0,0 0,0"/></g>
                <g transform="translate(101.0654,88.2002)" id="g780"><path id="path782" style="fill:#263237;fill-opacity:1;fill-rule:nonzero;stroke:none" d="m 0,0 c -0.203,1.082 -0.601,2.118 -1.176,3.057 0,0 -0.37,4.391 4.542,12.482 l -2.427,3.469 c -0.86,1.186 -2.37,1.709 -3.78,1.307 -0.193,-0.051 -0.378,-0.132 -0.547,-0.241 -0.81,-0.626 -1.579,-1.303 -2.301,-2.027 -2.365,-2.142 -6.698,-7.776 -6.698,-7.776 l 0.563,-0.479 4.402,4.715 c 1.501,1.594 1.112,-1.444 -0.05,-3.549 C -8.634,8.854 -9.484,6.286 -5.91,3.089 -1.722,-0.621 0.187,-1.96 0,0"/></g>
                <g transform="translate(106.0635,106.7354)" id="g784"><path id="path786" style="fill:#cd7a63;fill-opacity:1;fill-rule:nonzero;stroke:none" d="m 0,0 c 0,0 -2.072,-3.837 -4.117,-8.316 -2.044,-4.481 -2.057,-7.163 -2.057,-7.163 0,0 -3.147,1.854 -2.759,4.702 0.39,2.848 4.155,10.463 1.094,12.557 0,0 0.878,0.425 1.902,0.613 C -4.913,2.579 0,0 0,0"/></g>
                <g transform="translate(107.439,269.9697)" id="g788"><path id="path790" style="fill:#1a2e35;fill-opacity:1;fill-rule:nonzero;stroke:none" d="m 0,0 -0.182,-4.828 33.072,1.285 0.215,5.71 z"/></g>
                <g id="g792"><g id="g794"/><g id="g806">
                        <g style="opacity:0.19999701" id="g804" clip-path="url(#clipPath798)">
                            <g id="g802" transform="translate(107.439,269.9697)"><path id="path800" style="fill:#ffffff;fill-opacity:1;fill-rule:nonzero;stroke:none" d="m 0,0 -0.182,-4.828 33.072,1.285 0.215,5.71 z"/></g>
                        </g>
                    </g>
                </g>
                <g transform="translate(118.6968,263.2354)" id="g808"><path id="path810" style="fill:#1a2e35;fill-opacity:1;fill-rule:nonzero;stroke:none" d="M 0,0 -1.639,-0.022 -1.75,8.325 -0.111,8.347 Z"/></g>
                <g transform="translate(138.9268,264.6875)" id="g812"><path id="path814" style="fill:#1a2e35;fill-opacity:1;fill-rule:nonzero;stroke:none" d="M 0,0 -1.639,-0.022 -1.75,8.326 -0.111,8.348 Z"/></g>
                <g transform="translate(131.1284,266.4277)" id="g816"><path id="path818" style="fill:#ffffff;fill-opacity:1;fill-rule:nonzero;stroke:none" d="m 0,0 -3.906,-0.315 c -0.268,-0.024 -0.521,0.066 -0.716,0.249 -0.195,0.18 -0.302,0.427 -0.3,0.694 l 0.019,2.493 c 0.004,0.491 0.376,0.891 0.866,0.93 l 3.906,0.308 c 0.028,0.002 0.056,0.003 0.083,0.003 C 0.187,4.36 0.408,4.272 0.583,4.109 0.778,3.928 0.884,3.681 0.882,3.415 L 0.879,3.037 C 0.829,3.045 0.78,3.061 0.726,3.057 L -0.368,2.981 C -0.731,2.956 -1.009,2.637 -0.983,2.273 -0.958,1.909 -0.64,1.632 -0.276,1.657 L 0.818,1.733 C 0.837,1.734 0.852,1.745 0.87,1.748 L 0.863,0.93 C 0.86,0.439 0.489,0.04 0,0 M 1.264,4.842 C 0.868,5.21 0.334,5.401 -0.209,5.355 L -4.116,5.048 C -5.127,4.968 -5.896,4.143 -5.903,3.128 L -5.922,0.636 c -0.004,-0.542 0.222,-1.066 0.619,-1.435 0.356,-0.331 0.825,-0.515 1.308,-0.519 0.057,0 0.113,0.002 0.169,0.006 l 3.907,0.316 c 1.008,0.081 1.775,0.905 1.782,1.918 L 1.882,3.407 C 1.886,3.949 1.661,4.472 1.264,4.842"/></g>
                <g transform="translate(98.4536,312.2573)" id="g820"><path id="path822" style="fill:#50e3a39d;fill-opacity:1;fill-rule:nonzero;stroke:none" d="m 0,0 c 0.711,-1.809 0.421,-2.498 1.006,-4.118 0.649,-1.735 1.244,-3.366 1.777,-4.913 1.286,-3.637 2.289,-6.784 3.094,-9.574 2.467,-8.624 2.886,-25.203 2.886,-25.203 l 33.277,2.329 C 44.349,-10.633 39.055,4.6 39.055,4.6 c 0,0 -0.836,0.073 -2.174,0.167 C 34.341,4.945 29.982,5.206 26.01,5.175 21.306,5.028 16.634,4.579 12.003,3.847 8.856,3.377 3.818,2.556 0,0"/></g>
                <g id="g824"><g id="g826"/><g id="g838">
                        <g style="opacity:0.19999701" id="g836" clip-path="url(#clipPath830)">
                            <g id="g834" transform="translate(130.8682,289.9863)"><path id="path832" style="fill:#000000;fill-opacity:1;fill-rule:nonzero;stroke:none" d="m 0,0 c 0,0 -12.675,-14.937 -23.683,-20.582 -0.135,3.633 -0.744,16.857 -2.853,24.245 -0.57,1.995 -1.248,4.171 -2.06,6.573 l -0.811,6.316 c 0,0 4.37,-6.976 5.011,-13.079 0,0 14.638,0.975 23.347,6.092 z"/></g>
                        </g>
                    </g>
                </g>
                <g transform="translate(123.4248,310.8711)" id="g840"><path id="path842" style="fill:#fdc2bc;fill-opacity:1;fill-rule:nonzero;stroke:none" d="M 0,0 C -7.807,1.406 -9.997,4.883 -9.997,4.883 -4.772,9.333 -8.5,17.695 -8.5,17.695 L 0.869,15.448 C 0.541,13.897 0.368,12.592 0.297,11.485 -0.067,5.748 2.526,5.559 2.526,5.559 4.028,2.365 0,0 0,0"/></g>
                <g id="g844"><g id="g846"/><g id="g858">
                        <g style="opacity:0.19999701" id="g856" clip-path="url(#clipPath850)">
                            <g id="g854" transform="translate(124.2939,326.3188)"><path id="path852" style="fill:#000000;fill-opacity:1;fill-rule:nonzero;stroke:none" d="m 0,0 c -0.328,-1.55 -0.501,-2.856 -0.572,-3.963 -4.506,1.289 -8.797,6.211 -8.797,6.211 z"/></g>
                        </g>
                    </g>
                </g>
                <g transform="translate(123.6006,353.1323)" id="g860"><path id="path862" style="fill:#fdc2bc;fill-opacity:1;fill-rule:nonzero;stroke:none" d="M 0,0 C 8.212,-0.738 10.459,-5.373 10.3,-13.889 10.101,-24.532 7.08,-31.835 -2.984,-28.653 -16.653,-24.331 -13.638,1.227 0,0"/></g>
                <g transform="translate(128.6333,340.1797)" id="g864"><path id="path866" style="fill:#ec837e;fill-opacity:1;fill-rule:nonzero;stroke:none" d="m 0,0 c 0,0 0.945,-2.248 2.083,-3.621 0,0 -0.803,-1.053 -2.248,-0.734 z"/></g>
                <g transform="translate(123.6675,341.3032)" id="g868"><path id="path870" style="fill:#1a2e35;fill-opacity:1;fill-rule:nonzero;stroke:none" d="m 0,0 c -0.045,-0.676 -0.446,-1.2 -0.897,-1.17 -0.451,0.03 -0.78,0.602 -0.735,1.278 0.045,0.676 0.447,1.2 0.898,1.17 C -0.284,1.248 0.045,0.676 0,0"/></g>
                <g transform="translate(122.7427,342.561)" id="g872"><path id="path874" style="fill:#1a2e35;fill-opacity:1;fill-rule:nonzero;stroke:none" d="M 0,0 1.509,0.479 C 1.509,0.479 0.694,-0.709 0,0"/></g>
                <g transform="translate(132.0806,340.8857)" id="g876"><path id="path878" style="fill:#1a2e35;fill-opacity:1;fill-rule:nonzero;stroke:none" d="m 0,0 c -0.045,-0.676 -0.447,-1.2 -0.897,-1.17 -0.451,0.03 -0.78,0.602 -0.735,1.278 0.045,0.676 0.446,1.2 0.897,1.17 C -0.284,1.248 0.045,0.676 0,0"/></g>
                <g transform="translate(131.1553,342.1436)" id="g880"><path id="path882" style="fill:#1a2e35;fill-opacity:1;fill-rule:nonzero;stroke:none" d="M 0,0 1.509,0.479 C 1.509,0.479 0.695,-0.709 0,0"/></g>
                <g transform="translate(124.0952,346.981)" id="g884"><path id="path886" style="fill:none;stroke:#1a2e35;stroke-width:0.72500002;stroke-linecap:round;stroke-linejoin:round;stroke-miterlimit:10;stroke-dasharray:none;stroke-opacity:1" d="M 0,0 C 0,0 -2.281,0.508 -3.673,-0.921"/></g>
                <g transform="translate(130.0952,346.791)" id="g888"><path id="path890" style="fill:none;stroke:#1a2e35;stroke-width:0.72500002;stroke-linecap:round;stroke-linejoin:round;stroke-miterlimit:10;stroke-dasharray:none;stroke-opacity:1" d="M 0,0 C 0,0 1.499,0.407 3.212,-0.969"/></g>
                <g transform="translate(113.3813,340.0991)" id="g892"><path id="path894" style="fill:#1a2e35;fill-opacity:1;fill-rule:nonzero;stroke:none" d="m 0,0 c 0,0 4.446,6.402 4.333,11.663 0,0 16.871,5.184 16.188,-11.406 0,0 2.91,14.524 -11.177,16.12 -14.065,1.595 -15.885,-19.061 -9.148,-25.87 0,0 -2.951,5.487 -0.196,9.493"/></g>
                <g transform="translate(114.5664,338.2451)" id="g896"><path id="path898" style="fill:#fdc2bc;fill-opacity:1;fill-rule:nonzero;stroke:none" d="M 0,0 C 0.064,1.327 -1.099,3.688 -3.582,3.641 -6.151,3.592 -7.834,-1.523 -1.618,-3.349 -0.726,-3.611 -0.133,-2.769 0,0"/></g>
                <g transform="translate(127.9053,332.3677)" id="g900"><path id="path902" style="fill:none;stroke:#1a2e35;stroke-width:0.708;stroke-linecap:round;stroke-linejoin:round;stroke-miterlimit:10;stroke-dasharray:none;stroke-opacity:1" d="M 0,0 C 0,0 -3.45,-0.28 -4.408,2.902"/></g>
                <g transform="translate(115.4175,319.7187)" id="g904"><path id="path906" style="fill:#50e3a39d;fill-opacity:1;fill-rule:nonzero;stroke:none" d="m 0,0 7.325,-5.607 2.17,6.042 3.556,-2.774 3.231,-0.842 c 1.111,-0.29 1.692,-1.517 1.205,-2.557 -1.692,-3.618 -5.462,-10.875 -8.538,-11.028 -3.168,-0.159 -13.498,6.952 -18.042,10.202 -0.838,0.598 -0.555,1.906 0.454,2.108 l 5.77,1.152 z"/></g>
                <g id="g908"><g id="g910"/><g id="g922">
                        <g style="opacity:0.60000598" id="g920" clip-path="url(#clipPath914)">
                            <g id="g918" transform="translate(115.4175,319.7187)"><path id="path916" style="fill:#ffffff;fill-opacity:1;fill-rule:nonzero;stroke:none" d="m 0,0 7.325,-5.607 2.17,6.042 3.556,-2.774 3.231,-0.842 c 1.111,-0.29 1.692,-1.517 1.205,-2.557 -1.692,-3.618 -5.462,-10.875 -8.538,-11.028 -3.168,-0.159 -13.498,6.952 -18.042,10.202 -0.838,0.598 -0.555,1.906 0.454,2.108 l 5.77,1.152 z"/></g>
                        </g>
                    </g>
                </g>
                <g id="g924"><g id="g926"/><g id="g938">
                        <g style="opacity:0.30000299" id="g936" clip-path="url(#clipPath930)">
                            <g id="g934" transform="translate(112.5483,316.415)"><path id="path932" style="fill:#ffffff;fill-opacity:1;fill-rule:nonzero;stroke:none" d="m 0,0 4.852,-6.942 5.342,3.921 5.163,-2.523 0.563,6.509 -3.556,2.774 -2.17,-6.042 -7.325,5.607 z"/></g>
                        </g>
                    </g>
                </g>
                <g transform="translate(122.9741,294.4346)" id="g940"><path id="path942" style="fill:#fdc2bc;fill-opacity:1;fill-rule:nonzero;stroke:none" d="m 0,0 2.44,-3.004 -16.113,-5.893 0.226,5.172 z"/></g>
                <g transform="translate(117.7144,351.7617)" id="g944"><path id="path946" style="fill:none;stroke:#1a2e35;stroke-width:0.708;stroke-linecap:round;stroke-linejoin:round;stroke-miterlimit:10;stroke-dasharray:none;stroke-opacity:1" d="M 0,0 C 0,0 13.313,2.884 14.95,-9.875"/></g>
                <g transform="translate(101.3594,313.7153)" id="g948"><path id="path950" style="fill:#50e3a39d;fill-opacity:1;fill-rule:nonzero;stroke:none" d="m 0,0 c -5.967,0.206 -22.482,-25.133 -16.833,-34.142 5.648,-9.007 29.071,5.02 29.071,5.02 l -1.992,7.59 c 0,0 -14.432,-2.896 -15.213,-1.482 -0.781,1.414 4.999,8.781 4.999,8.781 0,0 2.731,1.694 1.9,7.149 C 1.102,-1.63 0,0 0,0"/></g>
                <g transform="translate(112.6875,282.7051)" id="g952"><path id="path954" style="fill:#50e3a39d;fill-opacity:1;fill-rule:nonzero;stroke:none" d="M 0,0 1.878,0.079 0.811,10.754 -1.73,10.729 Z"/></g>
                <g transform="translate(199.0576,328.5908)" id="g956"><path id="path958" style="fill:#fdc2bc;fill-opacity:1;fill-rule:nonzero;stroke:none" d="m 0,0 3.188,-2.194 -13.8,-10.196 -1.24,5.027 z"/></g>
                <g transform="translate(210.6543,331.8667)" id="g960"><path id="path962" style="fill:#fdc2bc;fill-opacity:1;fill-rule:nonzero;stroke:none" d="m 0,0 c -0.796,0.898 -5.474,4.125 -6.471,3.562 -0.997,-0.563 -4.622,-6.379 -5.741,-6.995 -0.136,-0.074 2.088,-4.107 2.088,-4.107 0,0 2.127,-0.137 2.991,0.095 C -6.27,-7.214 0.796,-0.897 0,0"/></g>
                <g transform="translate(137.5088,316.8574)" id="g964"><path id="path966" style="fill:#50e3a39d;fill-opacity:1;fill-rule:nonzero;stroke:none" d="m 0,0 c 18.15,-1.242 29.755,-1.823 36.348,0.577 6.594,2.401 18.757,7.837 18.757,7.837 l 3.49,-6.753 c 0,0 -21.629,-11.286 -25.498,-11.71 -3.869,-0.424 -31.562,-3.856 -31.562,-3.856 z"/></g>
                <g transform="translate(126.7461,288.6211)" id="g968"><path id="path970" style="fill:#1a2e35;fill-opacity:1;fill-rule:nonzero;stroke:none" d="m 0,0 c -0.112,-0.498 0.21,-0.947 0.721,-1.003 l 9.086,-0.991 c 0.51,-0.056 1.016,0.303 1.128,0.801 l 3.985,17.71 c 0.113,0.498 -0.197,1.071 -0.707,1.127 L 5.127,18.635 C 4.616,18.691 4.098,18.208 3.985,17.71 Z"/></g>
                <g id="g972"><g id="g974"/><g id="g986">
                        <g style="opacity:0.5" id="g984" clip-path="url(#clipPath978)">
                            <g id="g982" transform="translate(131.7515,306.3394)"><path id="path980" style="fill:#ffffff;fill-opacity:1;fill-rule:nonzero;stroke:none" d="m 0,0 -4.031,-17.881 c -0.114,-0.504 0.114,-0.88 0.621,-0.935 l 7.705,-0.841 c 0.517,-0.056 1.495,0.125 1.608,0.629 l 4.038,17.943 c 0.114,0.504 -0.723,1.009 -1.24,1.066 L 0.996,0.822 C 0.489,0.877 0.114,0.504 0,0"/></g>
                        </g>
                    </g>
                </g>
                <g transform="translate(135.0239,294.3101)" id="g988"><path id="path990" style="fill:#fdc2bc;fill-opacity:1;fill-rule:nonzero;stroke:none" d="m 0,0 c -0.511,1.086 -4.089,5.5 -5.205,5.241 -1.115,-0.259 -6.233,-4.819 -7.479,-5.094 -0.152,-0.033 0.846,-4.529 0.846,-4.529 0,0 2.002,-0.73 2.896,-0.752 C -8.048,-5.155 0.51,-1.085 0,0"/></g>
                <g id="g992"><g id="g994"/><g id="g1006">
                        <g style="opacity:0.60000598" id="g1004" clip-path="url(#clipPath998)">
                            <g id="g1002" transform="translate(112.6875,282.7051)"><path id="path1000" style="fill:#ffffff;fill-opacity:1;fill-rule:nonzero;stroke:none" d="M 0,0 1.878,0.079 0.811,10.754 -1.73,10.729 Z"/></g>
                        </g>
                    </g>
                </g>
                <g transform="translate(196.623,316.415)" id="g1008"><path id="path1010" style="fill:#50e3a39d;fill-opacity:1;fill-rule:nonzero;stroke:none" d="M 0,0 1.611,0.968 -4.435,9.831 -6.654,8.593 Z"/></g>
                <g id="g1012"><g id="g1014"/><g id="g1026">
                        <g style="opacity:0.60000598" id="g1024" clip-path="url(#clipPath1018)">
                            <g id="g1022" transform="translate(196.623,316.415)"><path id="path1020" style="fill:#ffffff;fill-opacity:1;fill-rule:nonzero;stroke:none" d="M 0,0 1.611,0.968 -4.435,9.831 -6.654,8.593 Z"/></g>
                        </g>
                    </g>
                </g>
            </g>
        </g>
    </g>
</svg>
